<?xml version="1.0" standalone="no"?><!DOCTYPE svg PUBLIC "-//W3C//DTD SVG 1.1//EN" "http://www.w3.org/Graphics/SVG/1.1/DTD/svg11.dtd"><svg t="1630165522137" class="icon" viewBox="0 0 1024 1024" version="1.1" xmlns="http://www.w3.org/2000/svg" p-id="7954" xmlns:xlink="http://www.w3.org/1999/xlink" width="200" height="200"><defs><style type="text/css"></style></defs><path d="M827.901117 443.556144a171.154286 85.76 16.7 1 0 49.288077-164.285715 171.154286 85.76 16.7 1 0-49.288077 164.285715Z" fill="#37A42F" p-id="7955"></path><path d="M701.120966 58.497728l242.307311 242.307312-30.256089 30.256089-242.307311-242.307312 30.256089-30.256089Z" fill="#5B4524" p-id="7956"></path><path d="M913.084213 270.500684l30.256089 30.256089-30.256089 30.256089-30.256089-30.256089 30.256089-30.256089Z" fill="#CC8F46" p-id="7957"></path><path d="M647.68 347.428571l-14.445714-33.645714a404.114286 404.114286 0 0 0 158.72-129.645714L822.857143 204.8a433.005714 433.005714 0 0 1-175.177143 142.628571z" fill="#5B4524" p-id="7958"></path><path d="M549.668571 482.56m-107.154285 0a107.154286 107.154286 0 1 0 214.308571 0 107.154286 107.154286 0 1 0-214.308571 0Z" fill="#4527A0" p-id="7959"></path><path d="M670.72 573.44m-107.154286 0a107.154286 107.154286 0 1 0 214.308572 0 107.154286 107.154286 0 1 0-214.308572 0Z" fill="#4527A0" p-id="7960"></path><path d="M640.548571 421.851429m-107.154285 0a107.154286 107.154286 0 1 0 214.308571 0 107.154286 107.154286 0 1 0-214.308571 0Z" fill="#4527A0" p-id="7961"></path><path d="M488.96 300.8m-107.154286 0a107.154286 107.154286 0 1 0 214.308572 0 107.154286 107.154286 0 1 0-214.308572 0Z" fill="#4527A0" p-id="7962"></path><path d="M413.257143 346.148571m-107.154286 0a107.154286 107.154286 0 1 0 214.308572 0 107.154286 107.154286 0 1 0-214.308572 0Z" fill="#4527A0" p-id="7963"></path><path d="M292.022857 709.668571m-107.154286 0a107.154286 107.154286 0 1 0 214.308572 0 107.154286 107.154286 0 1 0-214.308572 0Z" fill="#4527A0" p-id="7964"></path><path d="M488.96 664.32m-107.154286 0a107.154286 107.154286 0 1 0 214.308572 0 107.154286 107.154286 0 1 0-214.308572 0Z" fill="#4527A0" p-id="7965"></path><path d="M352.731429 497.737143m-107.154286 0a107.154286 107.154286 0 1 0 214.308571 0 107.154286 107.154286 0 1 0-214.308571 0Z" fill="#4527A0" p-id="7966"></path><path d="M186.148571 846.08m-107.154285 0a107.154286 107.154286 0 1 0 214.308571 0 107.154286 107.154286 0 1 0-214.308571 0Z" fill="#4527A0" p-id="7967"></path><path d="M549.668571 209.92m-107.154285 0a107.154286 107.154286 0 1 0 214.308571 0 107.154286 107.154286 0 1 0-214.308571 0Z" fill="#7E57C2" p-id="7968"></path><path d="M655.542857 346.148571m-107.154286 0a107.154286 107.154286 0 1 0 214.308572 0 107.154286 107.154286 0 1 0-214.308572 0Z" fill="#5E35B1" p-id="7969"></path><path d="M186.148571 846.08m-107.154285 0a107.154286 107.154286 0 1 0 214.308571 0 107.154286 107.154286 0 1 0-214.308571 0Z" fill="#5E35B1" p-id="7970"></path><path d="M277.028571 452.205714m-107.154285 0a107.154286 107.154286 0 1 0 214.308571 0 107.154286 107.154286 0 1 0-214.308571 0Z" fill="#5E35B1" p-id="7971"></path><path d="M413.257143 588.617143m-107.154286 0a107.154286 107.154286 0 1 0 214.308572 0 107.154286 107.154286 0 1 0-214.308572 0Z" fill="#5E35B1" p-id="7972"></path><path d="M231.497143 649.142857m-107.154286 0a107.154286 107.154286 0 1 0 214.308572 0 107.154286 107.154286 0 1 0-214.308572 0Z" fill="#7E57C2" p-id="7973"></path><path d="M367.908571 785.371429m-107.154285 0a107.154286 107.154286 0 1 0 214.308571 0 107.154286 107.154286 0 1 0-214.308571 0Z" fill="#5E35B1" p-id="7974"></path><path d="M549.668571 724.845714m-107.154285 0a107.154286 107.154286 0 1 0 214.308571 0 107.154286 107.154286 0 1 0-214.308571 0Z" fill="#7E57C2" p-id="7975"></path><path d="M367.908571 270.445714m-107.154285 0a107.154286 107.154286 0 1 0 214.308571 0 107.154286 107.154286 0 1 0-214.308571 0Z" fill="#5E35B1" p-id="7976"></path><path d="M473.782857 406.857143m-107.154286 0a107.154286 107.154286 0 1 0 214.308572 0 107.154286 107.154286 0 1 0-214.308572 0Z" fill="#7E57C2" p-id="7977"></path><path d="M610.194286 543.085714m-107.154286 0a107.154286 107.154286 0 1 0 214.308571 0 107.154286 107.154286 0 1 0-214.308571 0Z" fill="#5E35B1" p-id="7978"></path><path d="M746.422857 649.142857m-107.154286 0a107.154286 107.154286 0 1 0 214.308572 0 107.154286 107.154286 0 1 0-214.308572 0Z" fill="#5E35B1" p-id="7979"></path><path d="M791.954286 452.205714m-107.154286 0a107.154286 107.154286 0 1 0 214.308571 0 107.154286 107.154286 0 1 0-214.308571 0Z" fill="#7E57C2" p-id="7980"></path><path d="M557.56319 216.886333a171.154286 85.76 52.17 1 0 135.472326-105.196765 171.154286 85.76 52.17 1 0-135.472326 105.196765Z" fill="#37A42F" p-id="7981"></path></svg>